<svg width="403" height="105" viewBox="0 0 403 105" fill="none" xmlns="http://www.w3.org/2000/svg">
<path fill-rule="evenodd" clip-rule="evenodd" d="M305 0H0V105L299.5 105L350 105H403L350.16 53.1568L403 0H350H305Z" fill="#27272A"/>
<path d="M56.7355 67V61.7912C56.5528 62.3395 56.0273 63.0934 55.1592 64.0529C54.3139 65.0124 53.1488 65.8806 51.6638 66.6573C50.2017 67.4341 48.4654 67.8224 46.455 67.8224C43.8278 67.8224 41.4633 67.1942 39.3615 65.9377C37.2597 64.6812 35.6034 62.9335 34.3926 60.6946C33.1818 58.4558 32.5763 55.8742 32.5763 52.95C32.5763 50.0257 33.1818 47.4442 34.3926 45.2053C35.6034 42.9664 37.2597 41.2188 39.3615 39.9623C41.4633 38.6829 43.8278 38.0432 46.455 38.0432C48.4198 38.0432 50.1218 38.3859 51.561 39.0713C53.0003 39.7566 54.154 40.5448 55.0221 41.4358C55.9131 42.3268 56.4614 43.1035 56.667 43.766V38.8657H63.9319V67H56.7355ZM39.807 52.95C39.807 54.7548 40.2068 56.3311 41.0064 57.679C41.806 59.0269 42.8454 60.0664 44.1248 60.7974C45.427 61.5285 46.8206 61.894 48.3055 61.894C49.9047 61.894 51.3211 61.5171 52.5548 60.7632C53.8113 60.0093 54.7937 58.9698 55.5019 57.6447C56.2329 56.2968 56.5985 54.7319 56.5985 52.95C56.5985 51.168 56.2329 49.6145 55.5019 48.2895C54.7937 46.9416 53.8113 45.8907 52.5548 45.1368C51.3211 44.36 49.9047 43.9717 48.3055 43.9717C46.8206 43.9717 45.427 44.3486 44.1248 45.1025C42.8454 45.8336 41.806 46.873 41.0064 48.2209C40.2068 49.5688 39.807 51.1452 39.807 52.95ZM78.7712 81.2556H71.5063V38.8657H78.874V43.766C79.1253 43.0807 79.7078 42.2925 80.6217 41.4015C81.5583 40.5105 82.792 39.7338 84.3227 39.0713C85.8533 38.3859 87.601 38.0432 89.5657 38.0432C92.2158 38.0432 94.5346 38.6829 96.5222 39.9623C98.5326 41.2188 100.098 42.9664 101.217 45.2053C102.359 47.4442 102.93 50.0257 102.93 52.95C102.93 55.8742 102.348 58.4558 101.183 60.6946C100.018 62.9335 98.407 64.6812 96.3509 65.9377C94.3176 67.1942 91.9759 67.8224 89.3258 67.8224C87.2469 67.8224 85.4421 67.4455 83.9114 66.6916C82.3808 65.9148 81.1814 65.0467 80.3133 64.0872C79.4451 63.1277 78.9311 62.3623 78.7712 61.7912V81.2556ZM95.6998 52.95C95.6998 51.1452 95.3228 49.5688 94.5689 48.2209C93.815 46.873 92.8098 45.8336 91.5533 45.1025C90.3196 44.3486 88.9603 43.9717 87.4753 43.9717C85.8762 43.9717 84.4255 44.36 83.1233 45.1368C81.8211 45.8907 80.7816 46.9416 80.0048 48.2895C79.2509 49.6145 78.874 51.168 78.874 52.95C78.874 54.7319 79.2509 56.2968 80.0048 57.6447C80.7816 58.9698 81.8211 60.0093 83.1233 60.7632C84.4255 61.5171 85.8762 61.894 87.4753 61.894C88.9603 61.894 90.3196 61.5285 91.5533 60.7974C92.8098 60.0664 93.815 59.0269 94.5689 57.679C95.3228 56.3311 95.6998 54.7548 95.6998 52.95ZM116.185 81.2556H108.92V38.8657H116.288V43.766C116.539 43.0807 117.122 42.2925 118.036 41.4015C118.972 40.5105 120.206 39.7338 121.737 39.0713C123.267 38.3859 125.015 38.0432 126.98 38.0432C129.63 38.0432 131.949 38.6829 133.936 39.9623C135.947 41.2188 137.512 42.9664 138.631 45.2053C139.773 47.4442 140.344 50.0257 140.344 52.95C140.344 55.8742 139.762 58.4558 138.597 60.6946C137.432 62.9335 135.821 64.6812 133.765 65.9377C131.732 67.1942 129.39 67.8224 126.74 67.8224C124.661 67.8224 122.856 67.4455 121.326 66.6916C119.795 65.9148 118.595 65.0467 117.727 64.0872C116.859 63.1277 116.345 62.3623 116.185 61.7912V81.2556ZM133.114 52.95C133.114 51.1452 132.737 49.5688 131.983 48.2209C131.229 46.873 130.224 45.8336 128.967 45.1025C127.734 44.3486 126.374 43.9717 124.889 43.9717C123.29 43.9717 121.84 44.36 120.537 45.1368C119.235 45.8907 118.196 46.9416 117.419 48.2895C116.665 49.6145 116.288 51.168 116.288 52.95C116.288 54.7319 116.665 56.2968 117.419 57.6447C118.196 58.9698 119.235 60.0093 120.537 60.7632C121.84 61.5171 123.29 61.894 124.889 61.894C126.374 61.894 127.734 61.5285 128.967 60.7974C130.224 60.0664 131.229 59.0269 131.983 57.679C132.737 56.3311 133.114 54.7548 133.114 52.95ZM159.699 67.8224C156.752 67.8224 154.125 67.1828 151.817 65.9034C149.533 64.6012 147.739 62.8421 146.437 60.6261C145.135 58.3872 144.484 55.8514 144.484 53.0185C144.484 50.1857 145.135 47.6384 146.437 45.3767C147.739 43.1149 149.533 41.333 151.817 40.0308C154.125 38.7057 156.752 38.0432 159.699 38.0432C162.646 38.0432 165.251 38.7057 167.512 40.0308C169.774 41.333 171.545 43.1149 172.824 45.3767C174.126 47.6384 174.777 50.1857 174.777 53.0185C174.777 55.8514 174.126 58.3872 172.824 60.6261C171.545 62.8421 169.774 64.6012 167.512 65.9034C165.251 67.1828 162.646 67.8224 159.699 67.8224ZM159.699 61.6541C161.344 61.6541 162.772 61.2772 163.983 60.5233C165.194 59.7694 166.13 58.7413 166.793 57.4391C167.455 56.1369 167.786 54.652 167.786 52.9842C167.786 51.3165 167.455 49.8315 166.793 48.5293C166.13 47.2043 165.194 46.1534 163.983 45.3767C162.772 44.5999 161.344 44.2115 159.699 44.2115C158.054 44.2115 156.615 44.5999 155.381 45.3767C154.171 46.1534 153.222 47.2043 152.537 48.5293C151.875 49.8315 151.543 51.3165 151.543 52.9842C151.543 54.652 151.875 56.1369 152.537 57.4391C153.222 58.7413 154.171 59.7694 155.381 60.5233C156.615 61.2772 158.054 61.6541 159.699 61.6541ZM181.518 67V38.8657H188.818V67H181.518ZM185.254 30.4356C184.02 30.4356 182.958 29.9902 182.067 29.0992C181.199 28.2082 180.765 27.1459 180.765 25.9122C180.765 24.6786 181.199 23.6162 182.067 22.7253C182.958 21.8114 184.02 21.3545 185.254 21.3545C186.076 21.3545 186.83 21.5716 187.515 22.0056C188.224 22.4168 188.783 22.9651 189.195 23.6505C189.629 24.313 189.846 25.0669 189.846 25.9122C189.846 27.1459 189.4 28.2082 188.509 29.0992C187.618 29.9902 186.533 30.4356 185.254 30.4356ZM214.194 38.0432C216.09 38.0432 217.929 38.4316 219.711 39.2083C221.493 39.9851 222.955 41.2302 224.097 42.9436C225.263 44.6342 225.845 46.8388 225.845 49.5574V67H218.477V50.8939C218.477 48.358 217.872 46.4961 216.661 45.3081C215.473 44.0973 213.931 43.4919 212.035 43.4919C210.778 43.4919 209.579 43.846 208.437 44.5542C207.295 45.2624 206.358 46.2219 205.627 47.4328C204.919 48.6436 204.564 50.0372 204.564 51.6135V67H197.231V38.8657H204.564V43.5947C204.77 42.818 205.318 42.0069 206.209 41.1616C207.123 40.2935 208.277 39.5625 209.67 38.9685C211.064 38.3516 212.572 38.0432 214.194 38.0432ZM230.777 38.8657H236.054V27.3172H243.319V38.8657H250.276V45.034H243.319V57.0622C243.319 58.57 243.571 59.7008 244.073 60.4547C244.599 61.2086 245.341 61.5856 246.301 61.5856C247.1 61.5856 247.729 61.4371 248.185 61.1401C248.665 60.8431 248.951 60.6375 249.042 60.5233L251.749 65.8349C251.612 65.9719 251.212 66.2004 250.55 66.5202C249.887 66.8401 249.031 67.1371 247.98 67.4112C246.929 67.6854 245.73 67.8224 244.382 67.8224C242.006 67.8224 240.018 67.1142 238.419 65.6978C236.843 64.2814 236.054 62.0654 236.054 59.0497V45.034H230.777V38.8657ZM261.572 54.6634C261.618 56.1483 261.972 57.4848 262.634 58.6728C263.297 59.8608 264.268 60.7974 265.547 61.4828C266.849 62.1453 268.437 62.4766 270.31 62.4766C271.933 62.4766 273.326 62.2595 274.491 61.8255C275.679 61.3686 276.662 60.8317 277.438 60.2149C278.215 59.5752 278.786 58.9812 279.152 58.4329L282.407 62.8535C281.699 63.813 280.808 64.6698 279.734 65.4237C278.661 66.1776 277.324 66.7601 275.725 67.1713C274.149 67.6054 272.195 67.8224 269.865 67.8224C266.804 67.8224 264.142 67.1942 261.88 65.9377C259.619 64.6812 257.86 62.9106 256.603 60.6261C255.369 58.3415 254.753 55.6686 254.753 52.6073C254.753 49.8658 255.324 47.3985 256.466 45.2053C257.608 42.9893 259.265 41.2416 261.435 39.9623C263.628 38.6829 266.255 38.0432 269.317 38.0432C272.172 38.0432 274.651 38.6144 276.753 39.7566C278.855 40.8989 280.477 42.5438 281.619 44.6913C282.784 46.8159 283.367 49.3861 283.367 52.4017C283.367 52.5844 283.355 52.9614 283.332 53.5325C283.332 54.1037 283.31 54.4806 283.264 54.6634H261.572ZM276.513 49.3175C276.49 48.5865 276.239 47.7526 275.759 46.8159C275.302 45.8793 274.56 45.0682 273.532 44.3829C272.504 43.6747 271.133 43.3206 269.42 43.3206C267.66 43.3206 266.233 43.6632 265.136 44.3486C264.039 45.0111 263.228 45.8107 262.703 46.7474C262.177 47.6612 261.869 48.5179 261.778 49.3175H276.513ZM294.636 54.6634C294.681 56.1483 295.035 57.4848 295.698 58.6728C296.361 59.8608 297.331 60.7974 298.611 61.4828C299.913 62.1453 301.501 62.4766 303.374 62.4766C304.996 62.4766 306.39 62.2595 307.555 61.8255C308.743 61.3686 309.725 60.8317 310.502 60.2149C311.279 59.5752 311.85 58.9812 312.215 58.4329L315.471 62.8535C314.763 63.813 313.872 64.6698 312.798 65.4237C311.724 66.1776 310.388 66.7601 308.789 67.1713C307.212 67.6054 305.259 67.8224 302.929 67.8224C299.867 67.8224 297.206 67.1942 294.944 65.9377C292.682 64.6812 290.923 62.9106 289.667 60.6261C288.433 58.3415 287.816 55.6686 287.816 52.6073C287.816 49.8658 288.387 47.3985 289.53 45.2053C290.672 42.9893 292.328 41.2416 294.499 39.9623C296.692 38.6829 299.319 38.0432 302.38 38.0432C305.236 38.0432 307.715 38.6144 309.817 39.7566C311.918 40.8989 313.54 42.5438 314.683 44.6913C315.848 46.8159 316.43 49.3861 316.43 52.4017C316.43 52.5844 316.419 52.9614 316.396 53.5325C316.396 54.1037 316.373 54.4806 316.328 54.6634H294.636ZM309.577 49.3175C309.554 48.5865 309.303 47.7526 308.823 46.8159C308.366 45.8793 307.623 45.0682 306.595 44.3829C305.567 43.6747 304.197 43.3206 302.483 43.3206C300.724 43.3206 299.296 43.6632 298.2 44.3486C297.103 45.0111 296.292 45.8107 295.767 46.7474C295.241 47.6612 294.933 48.5179 294.841 49.3175H309.577Z" fill="#FAFAFA"/>
</svg>
